<svg id="Capa_1" data-name="Capa 1" xmlns="http://www.w3.org/2000/svg" viewBox="0 0 93.96 94.47"><defs><style>.cls-1{fill:#004a80;}.cls-2{fill:#f6bc25;}</style></defs><circle class="cls-1" cx="46.72" cy="46.98" r="45.19"/><g id="Page-2"><g id="FrontEndJr-Test_Result_Mobile" data-name="FrontEndJr-Test Result Mobile"><g id="Header"><path id="icn_person" data-name="icn person" class="cls-2" d="M46.72,47a13.11,13.11,0,0,1-11.46-6.6,13.65,13.65,0,0,1,0-13.41,13.11,13.11,0,0,1,11.46-6.6,13.08,13.08,0,0,1,6.67,1.77A12.94,12.94,0,0,1,58.19,27a13.72,13.72,0,0,1,0,13.41,12.94,12.94,0,0,1-4.8,4.83A13.08,13.08,0,0,1,46.72,47ZM56,50.3a13.47,13.47,0,0,1,6.92,1.88,14,14,0,0,1,6.92,12.05V68.6a4.81,4.81,0,0,1-1.45,3.53,4.76,4.76,0,0,1-3.51,1.46H28.55a5,5,0,0,1-5-5V64.23a14,14,0,0,1,6.92-12.05,13.45,13.45,0,0,1,6.92-1.88h1.75a17.86,17.86,0,0,0,15.08,0Z"/></g></g></g></svg>